<svg width="240" height="240" viewBox="0 0 240 240" fill="none" xmlns="http://www.w3.org/2000/svg"><g clip-path="url(#clip0_41_2897)"><ellipse opacity=".1" rx="101.5" ry="22.265" transform="matrix(-1 0 0 1 120.5 203.265)" fill="#000"/><path d="M225.177 128.959l-21.218-61.612c-2.929-8.504-12.235-12.964-20.088-9.627l-5.37 2.282" stroke="#C9384A" stroke-width="12.777" stroke-linecap="round"/><path d="M219.001 129.998l-15.919-60.963c-2.391-9.156-12.16-14.315-20.442-10.796L178.501 60" stroke="#C9384A" stroke-width="12.777" stroke-linecap="round"/><path d="M30.069 74.94l75.119-35.531c5.94-2.81 13.228-.366 16.763 5.62l2.051 3.473" stroke="#C9384A" stroke-width="12.777" stroke-linecap="round"/><path d="M33.002 79.5l71.925-39.196c5.997-3.268 13.695-.915 17.371 5.312l1.703 2.884" stroke="#C9384A" stroke-width="12.777" stroke-linecap="round"/><path d="M142.727 95.06c13.381-8.487 31.078-4.665 39.783 8.502.152.23.462.299.697.155 13.47-8.227 31.116-4.177 39.629 9.187 21.452 33.69-26.773 62.549-56.732 73.72a2.892 2.892 0 01-3.21-.816c-19.93-22.782-53.77-69.425-20.167-90.749z" fill="#553C52" stroke="#F24C60" stroke-width="9.985"/><path d="M107.493 101.555c5.193 3.872 13.511 6.646 22.704 5.994" stroke="#C9384A" stroke-width="18.013"/><path d="M104.268 90.86c6.899 7.875 18.609 12.633 32.266 9.371" stroke="#C9384A" stroke-width="18.013"/><path d="M138.572 94.152c13.436-8.475 31.222-4.632 39.981 8.55.151.228.46.297.695.155 13.525-8.218 31.261-4.149 39.829 9.228 21.592 33.726-26.851 62.546-56.938 73.683a2.891 2.891 0 01-3.199-.812c-20.046-22.804-54.114-69.507-20.368-90.804z" fill="#2C214C" stroke="#F24C60" stroke-width="9.985"/><path d="M108.046 88.967C102 75.032 83.681 68.977 69.999 75.507a.518.518 0 01-.69-.253c-6.26-13.725-21.566-18.52-35.136-11.697-27.36 13.757-7.443 63.968 20.816 93.386a2.93 2.93 0 003.444.574c22.526-11.358 64.709-33.741 49.613-68.55z" fill="#F24C60" stroke="#F24C60" stroke-width="9.985"/><path d="M105.318 88.1c-6.047-13.935-24.366-19.99-38.047-13.46a.518.518 0 01-.691-.252c-6.26-13.725-21.566-18.52-35.136-11.698-27.36 13.757-7.442 63.968 20.817 93.387a2.932 2.932 0 003.443.573c22.526-11.358 64.71-33.741 49.614-68.55z" fill="#2C214C" stroke="#F24C60" stroke-width="9.985"/><path fill-rule="evenodd" clip-rule="evenodd" d="M59.765 87.815c.503-.548.664-1.331.39-2.022-4.477-11.3-13.407-18.099-22.766-13.94-10.906 4.847-9.544 21.434-2.46 38.89.543 1.336 2.287 1.629 3.263.567l21.573-23.495zM41.07 123.566a1.978 1.978 0 01.281-2.292l31.385-34.18c.377-.41.909-.648 1.467-.635 2.675.064 5.34.448 7.813 1.173 1.324.389 1.683 2.015.75 3.03L47.34 129.243c-.885.964-2.443.831-3.128-.284a130.52 130.52 0 01-3.143-5.393z" fill="#635785"/><path fill-rule="evenodd" clip-rule="evenodd" d="M197.231 112.106c1.337.313 1.685 1.938.754 2.946l-41.212 44.596a1.979 1.979 0 01-3.087-.213 182.36 182.36 0 01-3.396-5.124 1.98 1.98 0 01.216-2.406l35.136-38.266c.203-.221.452-.394.732-.501 4.123-1.569 7.734-1.762 10.857-1.032zm-25.971 3.792c.608-.663.703-1.655.189-2.394-6.306-9.06-16.754-14.24-25.249-9.784-13.326 6.99-10.898 22.386-2.787 38.587.616 1.232 2.272 1.445 3.203.43l24.644-26.839z" fill="#635785"/></g><defs><clipPath id="clip0_41_2897"><path fill="#fff" transform="matrix(4.37114e-08 1 1 -4.37114e-08 0 0)" d="M0 0h240v240H0z"/></clipPath></defs></svg>