<svg width="240" height="240" viewBox="0 0 240 240" fill="none" xmlns="http://www.w3.org/2000/svg"><g clip-path="url(#clip0_41_2939)"><ellipse opacity=".1" cx="123.201" cy="135.523" rx="111.075" ry="28.266" transform="rotate(-5.30028 123.201 135.523)" fill="#000"/><path d="M89.6 101.701h3.307c4.671 0 8.802-3.032 10.203-7.489l6.065-19.298a8.402 8.402 0 0110.432-5.529l89.864 26.974" stroke="#554936" stroke-width="8.287" stroke-linecap="round"/><path d="M3 115.119l2.785-.457a10.695 10.695 0 008.423-7.195l4.307-13.017c1.747-5.282 8.053-7.438 12.67-4.332l49.633 33.395" stroke="#73634D" stroke-width="8.287" stroke-linecap="round"/><ellipse cx="113.335" cy="124.121" rx="27.637" ry="34.219" transform="rotate(21.5864 113.335 124.121)" fill="#E1E7F2" fill-opacity=".4" stroke="#73634D" stroke-width="5.179"/><ellipse cx="110.34" cy="118.204" rx="13.947" ry="19.825" transform="rotate(42.2251 110.34 118.204)" fill="#fff" fill-opacity=".6"/><ellipse cx="184.117" cy="111.099" rx="25.263" ry="31.279" transform="rotate(21.5864 184.117 111.099)" fill="#E1E7F2" fill-opacity=".4" stroke="#73634D" stroke-width="5.179"/><path d="M80.816 123.512c11.112-26.67 37.078-47.444 58.37-19.912.28.362.826.421 1.162.111 7.405-6.826 12.636-7.695 18.864-4.35a.797.797 0 001.082-.321c9.182-17.171 38.329-31.386 52.072.716" stroke="#73634D" stroke-width="8.287" stroke-linecap="round"/><ellipse cx="182.298" cy="105.793" rx="13.947" ry="19.825" transform="rotate(42.2251 182.298 105.793)" fill="#fff" fill-opacity=".6"/></g><defs><clipPath id="clip0_41_2939"><path fill="#fff" d="M0 0h240v240H0z"/></clipPath></defs></svg>