<svg width="240" height="240" viewBox="0 0 240 240" fill="none" xmlns="http://www.w3.org/2000/svg"><ellipse opacity=".1" cx="121.5" cy="161" rx="103.5" ry="33" fill="#000"/><path d="M30.748 97.293l27.5 46c13.833-14.833 40.7-26.5 101.5-6.5 76 25 60.5 37.5 52 35-6.8-2 4.5-32.833 11-48" stroke="#3C2C71" stroke-width="4"/><path fill-rule="evenodd" clip-rule="evenodd" d="M104.632 105.455c9.834 7.424 24.311 9.778 35.991 5.851 5.966-2.005 12.499-3.271 19.209-3.243 30.217-2.295 47.915 17.732 66.415-2.608 1.5 7.34-1.925 21.006-2.765 23.305-4.276 11.714-20.516 46.245-63.087 45.248-25.621-2.806-32.208-15.68-37.277-28.238-2.253-5.581-8.934-6.695-12.951-2.213-9.725 10.854-21.594 22.058-44.153 15.105-40.379-12.443-42.772-51.941-42.367-65.433.314-10.434 4.6-14.434 8.6-16.934 8.5 30.5 28.55 11.218 55.193 19.998 6.373 2.1 12.168 5.369 17.192 9.162zm-5.196 26.783a2.6 2.6 0 01-1.224 3.167c-17.81 9.633-36.104 3.299-43.158-18.575a2.655 2.655 0 011.952-3.409c19.733-4.414 36.707 2.949 42.43 18.817zm38.024 8.021c-.943-.943-1.056-2.437-.209-3.467 10.92-13.295 34.112-15.257 47.312-2.829.95.894 1.059 2.351.298 3.411-13.581 18.939-32.206 18.099-47.401 2.885z" fill="#2C214C"/><path d="M118.13 131.114c-6.222-.937-12.368 10.084-15.977 18.915-.502 1.227 1.146 2.222 2.144 1.351 9.743-8.511 16.644-4.401 20.709 1.596.787 1.16 3.147.589 2.971-.802-1.171-9.231-4.133-20.2-9.847-21.06z" fill="#493689"/><path d="M99.437 132.237a2.6 2.6 0 01-1.224 3.167c-17.81 9.633-36.104 3.299-43.158-18.575a2.655 2.655 0 011.952-3.409c19.732-4.414 36.706 2.949 42.43 18.817z" stroke="#493689" stroke-width="4"/><path d="M137.25 136.792c-.846 1.03-.733 2.524.209 3.467 15.195 15.214 33.82 16.053 47.402-2.885.76-1.06.652-2.517-.298-3.411-13.2-12.429-36.392-10.467-47.313 2.829z" stroke="#493689" stroke-width="4"/></svg>