<svg width="240" height="240" viewBox="0 0 240 240" fill="none" xmlns="http://www.w3.org/2000/svg"><ellipse opacity=".1" cx="119.999" cy="173.853" rx="118.848" ry="30.244" fill="#000"/><path d="M199.635 108.969l29.859 35.429a11.631 11.631 0 006.099-10.231v-27.036c0-2.568-1.5-4.899-3.838-5.963l-79.672-36.249c-4.477-2.102-9.621 1.165-9.621 6.11v15.31c0 6.318 3.19 11.681 8.861 14.465 2.934 1.441 6.363-.695 6.363-3.965v-7.457c0-2.486 2.596-4.119 4.837-3.043l12.455 6.192c7.342 3.527 19.417 10.202 24.657 16.438z" fill="#819CC7"/><path d="M154.238 101.127l-3.467 1.088-7.274-36.995 5.276-.948 5.465 36.855z" fill="#819CC7"/><path d="M195.344 109.754l29.859 35.429a11.63 11.63 0 006.099-10.23v-27.037c0-2.568-1.5-4.899-3.838-5.962l-79.672-36.25c-4.477-2.102-9.621 1.165-9.621 6.111v15.31a16.562 16.562 0 009.264 14.868c2.935 1.441 6.363-.695 6.363-3.965v-7.457c0-2.486 2.596-4.119 4.837-3.043l12.052 5.789c7.342 3.526 19.417 10.201 24.657 16.437z" fill="#A1C1F2"/><path d="M222.02 102.618L96.888 135.769a11.814 11.814 0 01-8.048-.727l-69.919-32.84c-4.477-2.103-9.62 1.164-9.62 6.111L9.3 123.622a16.564 16.564 0 009.264 14.869c2.935 1.44 6.363-.696 6.363-3.965v-7.458c0-2.485 2.596-4.119 4.837-3.042l12.052 5.788a57.39 57.39 0 0119.088 14.812l29.581 35.205a14.538 14.538 0 005.463 4.036c.054.023.113.03.17.019l7.639-1.381a5.217 5.217 0 006.469 1.413l45.916-23.474a11.816 11.816 0 005.341-5.552l6.579-14.198c1.115-2.406 4.442-2.646 5.89-.425l4.807 7.374a10.976 10.976 0 009.195 4.982h28.465c2.187 0 4.15-1.34 4.948-3.377a5.315 5.315 0 013.27-3.103l.771-.257a7.05 7.05 0 004.822-6.689v-30.262c0-4.29-4.063-7.417-8.21-6.319z" fill="#80A4DA"/><path d="M21.306 138.811l-4.582.924-6.806-37.133 5.21-.983 6.178 37.192z" fill="#80A4DA"/><path d="M227.384 100.885L91.996 136.709c-2.684.71-5.532.452-8.044-.728L14.03 103.14c-4.477-2.103-9.62 1.164-9.62 6.11v15.31a16.563 16.563 0 009.263 14.868c2.935 1.441 6.364-.695 6.364-3.965v-7.457c0-2.486 2.596-4.119 4.837-3.042l12.051 5.788a57.375 57.375 0 0119.089 14.811l29.58 35.206a14.548 14.548 0 005.464 4.036c.053.023.112.03.17.019l7.639-1.381a5.217 5.217 0 006.468 1.413l45.916-23.474a11.815 11.815 0 005.341-5.552l6.579-14.198c1.115-2.407 4.442-2.646 5.89-.425l4.326 6.634a11.81 11.81 0 0010.548 5.344l37.941-2.096a5.505 5.505 0 004.821-3.488 5.506 5.506 0 013.387-3.215l.686-.229a7.05 7.05 0 004.823-6.688v-30.265c0-4.29-4.062-7.417-8.209-6.319z" fill="#A1C1F2"/><path d="M235.588 140.351v-30.264c0-4.29-4.062-7.417-8.209-6.319l-65.667 17.375-68.352 18.086a7.422 7.422 0 00-5.523 7.175v33.791c0 3.138 2.917 5.462 5.976 4.761a4.884 4.884 0 014.686 1.454l.457.497a6.05 6.05 0 006.182 1.701l43.225-12.905a11.815 11.815 0 007.34-6.354l6.054-13.064c1.115-2.407 4.442-2.646 5.89-.425l3.272 5.019a11.813 11.813 0 0013.192 4.893l38.283-11.121a6.364 6.364 0 004.151-3.792 6.369 6.369 0 013.917-3.718l.303-.101a7.05 7.05 0 004.823-6.689z" fill="#DAF5F9"/><path d="M101.7 172.465v-20.769a7.145 7.145 0 015.369-6.921l34.422-8.837c3.391-.87 6.692 1.691 6.692 5.191v23.485a5.358 5.358 0 01-3.887 5.153l-33.487 9.568c-4.565 1.305-9.109-2.123-9.109-6.87z" fill="#249DCD"/><path d="M176.959 151.68v-20.758a7.144 7.144 0 015.361-6.919l33.286-8.583c3.392-.874 6.697 1.687 6.697 5.19v23.484c0 2.39-1.581 4.49-3.878 5.151l-32.346 9.302c-4.567 1.313-9.12-2.115-9.12-6.867z" fill="#D32738"/></svg>