<svg xmlns="http://www.w3.org/2000/svg" width="132" height="100" viewBox="0 0 298 227" shape-rendering="geometricPrecision" text-rendering="geometricPrecision" image-rendering="optimizeQuality" fill-rule="evenodd" clip-rule="evenodd"><defs><style><![CDATA[
    .fil5 {fill:#4C4A4A;fill-rule:nonzero}
    .fil7 {fill:#686868;fill-rule:nonzero}
    .fil0 {fill:#6D6D6D;fill-rule:nonzero}
    .fil1 {fill:#868585;fill-rule:nonzero}
    .fil8 {fill:#884D4D;fill-rule:nonzero}
    .fil6 {fill:#9E9E9E;fill-rule:nonzero}
    .fil9 {fill:#A8A8A8;fill-rule:nonzero}
    .fil11 {fill:#B2B2B2;fill-rule:nonzero}
    .fil2 {fill:#D3B68F;fill-rule:nonzero}
    .fil3 {fill:#D8C3A3;fill-rule:nonzero}
    .fil4 {fill:#F1B3B6;fill-rule:nonzero}
    .fil10 {fill:white;fill-rule:nonzero}
   ]]></style></defs><g id="Слой_x0020_1"><g id="_989848048"><path class="fil0" d="M223 165h-4c-11 0-21-9-21-21 0-11 10-21 21-21h4c11 0 21 10 21 21 0 12-10 21-21 21z"/><path class="fil0" d="M226 218c-3 0-6-2-6-3-3-3-4-6-4-8-2-7-7-35-13-74 0-6 18 6 23 6s9 4 9 10v59c0 6-4 10-9 10zM78 130l16 25c2 3 3 8 2 12 0 2-1 4-2 6-3 5-7 9-10 10-1 1-2 2-1 3 1 3 1 6 2 9 4 11 8 19 12 27 1 1 7 5 14 4 6 0 10-3 11-4-5-5-10-12-15-20-2-3-4-6-5-9-1-2 0-5 3-5 6-2 17-6 26-16 14-18 10-38 10-41-19-3-37-7-56-11-5-1-10 5-7 10z"/><path class="fil0" d="M121 227h-14c-9 0-16-8-16-16 0-3 2-4 4-4h14c9 0 16 7 16 15 0 3-2 5-4 5z"/><path class="fil1" d="M200 162H100c-17 0-31-14-31-30 0-7 2-25 16-38 3-2 7-6 15-10 28-12 50 0 80-3 13-1 29-9 50-24 6 4 18-2 24 10 2 5 4 5 5 9v29c0 31-26 57-59 57z"/><path class="fil1" d="M171 151v-18c0-22-19-41-41-41s-40 19-40 41v18c0 3 0 6 1 10 3 0 6 1 9 1h69c1-4 2-7 2-11zM250 62c-30 3-54 28-54 59 0 16 5 29 15 40 27-5 48-28 48-56V76c-1-4-3-4-5-9-1-2-2-3-4-5z"/><path class="fil1" d="M72 148l5 7c2 3 3 8 2 12 0 2-1 4-2 6-3 5-7 9-10 10-1 1-1 2-1 3l3 9c3 11 7 19 11 27 1 1 7 5 14 4 6 0 10-3 11-4-4-5-10-12-15-20-2-3-3-6-5-9-1-2 0-5 3-5 6-2 17-6 26-16 14-18 10-38 10-41-12-2-24-4-35-7-14-3-24 12-17 24z"/><path class="fil1" d="M104 227H90c-9 0-16-8-16-16 0-3 2-4 4-4h14c9 0 16 7 16 15 0 3-2 5-4 5z"/><path class="fil2" d="M246 227h-13c-9 0-16-8-16-16 0-3 2-4 4-4h14c8 0 16 7 16 15 0 3-2 5-5 5z"/><path class="fil1" d="M208 165h-3c-12 0-21-9-21-21 0-11 9-21 21-21h3c12 0 21 10 21 21 0 12-9 21-21 21z"/><path class="fil1" d="M210 218c-3 0-6-2-7-3-2-3-3-6-4-8-1-7-6-35-12-74 0-6 18 6 23 6s9 4 9 10v59c0 6-4 10-9 10z"/><path class="fil3" d="M230 227h-13c-9 0-16-8-16-16 0-3 1-4 4-4h14c8 0 15 7 15 15 0 3-1 5-4 5z"/><path class="fil1" d="M220 18c-5-4-13-11-26-15-8-2-16-3-22-3 0 5 0 13 3 22 3 13 10 22 14 27l31-31z"/><path class="fil4" d="M210 21c-3-3-8-7-15-9-5-2-10-2-13-2 0 3 0 8 2 13 2 8 6 13 8 16l18-18z"/><path class="fil1" d="M251 18c4-4 13-11 25-15 9-2 17-3 22-3 0 5 0 13-2 22-4 13-11 22-15 27-10-10-20-21-30-31z"/><path class="fil4" d="M261 21c2-3 7-7 14-9 5-2 10-2 13-2 0 3 0 8-1 13-2 8-6 13-9 16-6-6-12-12-17-18z"/><path class="fil1" d="M292 56c3 19-27 47-58 47-30 0-60-27-58-47 1-6 4-10 11-18 11-12 26-30 47-30s35 17 47 31c7 7 10 11 11 17z"/><path class="fil1" d="M243 17c0-3-1-5-1-8-2 0-5-1-8-1-21 0-36 18-47 30-7 8-10 12-11 18 0 6 2 14 7 20 33 0 60-26 60-59z"/><path class="fil5" d="M222 58c-1 0-2 0-2-1 0-4-4-8-9-8-4 0-8 4-8 8 0 1-1 1-2 1s-2 0-2-1c0-6 6-11 12-11 7 0 12 5 12 11 0 1 0 1-1 1zM267 58c-1 0-2 0-2-1 0-4-4-8-8-8-5 0-9 4-9 8 0 1-1 1-2 1s-1 0-1-1c0-6 5-11 12-11 6 0 12 5 12 11 0 1-1 1-2 1z"/><path class="fil6" d="M239 97h-12c-9-1-15-11-10-20l3-6c3-3 5-6 7-7 4-4 9-4 13-1 2 2 5 5 7 8s3 5 4 7c3 5 2 11-2 15-3 3-6 4-10 4z"/><path class="fil1" d="M234 81l-1-1v-8l1-1c1 0 1 1 1 1v8s0 1-1 1z"/><path class="fil7" d="M228 66h12c1 0 1 1 1 2l-5 5c-1 1-3 1-4 0l-5-5c0-1 0-2 1-2z"/><path class="fil8" d="M240 83c-4 0-7-2-7-4 0-1 1-1 1-1 1 0 1 0 1 1s2 3 5 3c2 0 5-2 5-3s0-1 1-1v1c0 2-2 4-6 4z"/><path class="fil8" d="M228 83c-3 0-6-2-6-4 0-1 0-1 1-1v1c0 1 3 3 5 3 3 0 5-2 5-3s1-1 1-1c1 0 1 0 1 1 0 2-3 4-7 4z"/><path class="fil1" d="M5 35c-4 2-6 6-4 10 1 4 6 6 10 4 3-1 11-3 17 0 3 1 5 3 7 6 7 9 9 19 11 28v5c3 14 9 29 18 43 2 4 7 5 11 3 3-3 4-7 2-11-8-13-13-25-15-38-1-2-1-3-1-5-2-10-4-22-14-34-4-5-7-9-12-11-12-5-24-3-30 0z"/><path class="fil3" d="M31 51c-1-1-2-1-3-2-6-3-14-1-17 0-4 2-9 0-10-4-2-4 0-8 4-10 6-3 18-6 30 0 2 1 4 2 6 4-1 5-5 10-10 12z"/><path class="fil9" d="M88 188c-1 0-2 0-2-1s1-1 1-2c6-1 13-4 20-10 2-1 4-3 6-5 5-7 8-14 9-23 1-1 1-1 2-1s1 1 1 2c-1 9-4 17-10 24l-6 6c-7 6-15 9-21 10zM218 178c-1 0-2-1-2-1v-16h1c6-4 10-10 10-17 0-1 0-2 1-2s2 1 2 2c0 8-4 15-11 19v14s0 1-1 1z"/><path class="fil10" d="M216 69c0-1 0-1-1-1l-30-6v1c-1 0 0 0 0 0l30 6h1z"/><path class="fil11" d="M215 70l-30-6c-1 0-1 0-1-1v-1l1-1 31 6s1 1 1 2c-1 0-1 1-2 1zm-30-7z"/><path class="fil10" d="M185 80c-1 0 0 0 0-1l30-5h1s0 1-1 1l-30 6v-1z"/><path class="fil11" d="M185 81h-1v-1-1h1l30-6h1l1 1c0 1-1 1-1 2l-31 5zm0-1z"/><g><path class="fil10" d="M254 69v-1l30-6c1 0 1 0 1 1l-31 6z"/><path class="fil11" d="M254 70l-1-1c0-1 0-2 1-2l30-6c1 0 1 0 1 1h1c0 1-1 2-1 2l-31 6z"/></g><g><path class="fil10" d="M285 80v-1l-31-5v1l30 6c1 0 1-1 1-1z"/><path class="fil11" d="M285 81h-1l-30-5c-1-1-1-1-1-2s1-1 1-1l31 6h1v1c0 1 0 1-1 1zm0-1z"/></g></g></g></svg>