<?xml version="1.0" encoding="UTF-8"?>
<!DOCTYPE svg PUBLIC "-//W3C//DTD SVG 1.1//EN" "http://www.w3.org/Graphics/SVG/1.1/DTD/svg11.dtd">
<!-- Creator: CorelDRAW 2018 (64-Bit) -->
<svg xmlns="http://www.w3.org/2000/svg" xml:space="preserve" width="68px" height="50px" version="1.1" style="shape-rendering:geometricPrecision; text-rendering:geometricPrecision; image-rendering:optimizeQuality; fill-rule:evenodd; clip-rule:evenodd"
viewBox="0 0 1.66 1.22"
 xmlns:xlink="http://www.w3.org/1999/xlink">
 <defs>
  <style type="text/css">
   <![CDATA[
    .fil1 {fill:none}
    .fil0 {fill:#39414B;fill-rule:nonzero}
   ]]>
  </style>
 </defs>
 <g id="Слой_x0020_1">
  <metadata id="CorelCorpID_0Corel-Layer"/>
  <g id="_1515610480">
   <path class="fil0" d="M1.16 0.89l-0.02 0c-0.06,0 -0.11,-0.05 -0.11,-0.11 0,-0.07 0.05,-0.12 0.11,-0.12l0.02 0c0.06,0 0.11,0.05 0.11,0.12 0,0.06 -0.05,0.11 -0.11,0.11z"/>
   <path class="fil0" d="M1.18 1.17c-0.02,0 -0.03,-0.01 -0.04,-0.01 -0.01,-0.02 -0.02,-0.04 -0.02,-0.05 -0.01,-0.03 -0.03,-0.19 -0.07,-0.39 0,-0.03 0.1,0.03 0.13,0.03 0.02,0 0.05,0.02 0.05,0.05l0 0.32c0,0.03 -0.03,0.05 -0.05,0.05z"/>
   <path class="fil0" d="M0.38 0.7l0.09 0.13c0.01,0.02 0.01,0.05 0.01,0.07 0,0.01 -0.01,0.02 -0.01,0.03 -0.02,0.03 -0.04,0.05 -0.06,0.06 0,0 0,0.01 0,0.01 0,0.02 0.01,0.03 0.01,0.05 0.02,0.06 0.04,0.1 0.06,0.14 0.01,0.01 0.04,0.03 0.08,0.03 0.03,-0.01 0.05,-0.02 0.06,-0.03 -0.03,-0.02 -0.06,-0.06 -0.08,-0.1 -0.01,-0.02 -0.02,-0.04 -0.03,-0.05 0,-0.01 0,-0.03 0.02,-0.03 0.03,-0.01 0.09,-0.03 0.14,-0.09 0.07,-0.09 0.05,-0.2 0.05,-0.21 -0.1,-0.02 -0.2,-0.04 -0.3,-0.06 -0.03,-0.01 -0.05,0.02 -0.04,0.05z"/>
   <path class="fil0" d="M0.61 1.22l-0.07 0c-0.05,0 -0.09,-0.04 -0.09,-0.09 0,-0.01 0.01,-0.02 0.02,-0.02l0.08 0c0.05,0 0.09,0.04 0.09,0.09 0,0.01 -0.01,0.02 -0.03,0.02z"/>
   <path class="fil0" d="M1.04 0.87l-0.54 0c-0.09,0 -0.17,-0.07 -0.17,-0.16 0,-0.04 0.02,-0.13 0.09,-0.2 0.01,-0.02 0.04,-0.04 0.08,-0.06 0.15,-0.06 0.27,0 0.43,-0.01 0.07,-0.01 0.15,-0.05 0.27,-0.14 0.03,0.03 0.09,0 0.13,0.06 0.01,0.03 0.02,0.03 0.03,0.05l0 0.15c0,0.17 -0.15,0.31 -0.32,0.31z"/>
   <path class="fil0" d="M0.35 0.8l0.03 0.03c0.01,0.02 0.01,0.05 0.01,0.07 0,0.01 -0.01,0.02 -0.01,0.03 -0.02,0.03 -0.04,0.05 -0.06,0.06 0,0 0,0.01 0,0.01 0,0.02 0.01,0.03 0.01,0.05 0.02,0.06 0.04,0.1 0.06,0.14 0.01,0.01 0.04,0.03 0.08,0.03 0.03,-0.01 0.05,-0.02 0.06,-0.03 -0.03,-0.02 -0.06,-0.06 -0.08,-0.1 -0.01,-0.02 -0.02,-0.04 -0.03,-0.05 0,-0.01 0,-0.03 0.01,-0.03 0.04,-0.01 0.1,-0.03 0.14,-0.09 0.08,-0.09 0.06,-0.2 0.06,-0.21 -0.06,-0.02 -0.13,-0.03 -0.19,-0.04 -0.07,-0.02 -0.13,0.06 -0.09,0.13z"/>
   <path class="fil0" d="M0.52 1.22l-0.07 0c-0.05,0 -0.09,-0.04 -0.09,-0.09 0,-0.01 0.01,-0.02 0.02,-0.02l0.08 0c0.05,0 0.08,0.04 0.08,0.09 0,0.01 -0.01,0.02 -0.02,0.02z"/>
   <path class="fil0" d="M1.29 1.22l-0.08 0c-0.04,0 -0.08,-0.04 -0.08,-0.09 0,-0.01 0.01,-0.02 0.02,-0.02l0.07 0c0.05,0 0.09,0.04 0.09,0.09 0,0.01 -0.01,0.02 -0.02,0.02z"/>
   <path class="fil0" d="M1.08 0.89l-0.02 0c-0.06,0 -0.11,-0.05 -0.11,-0.11 0,-0.07 0.05,-0.12 0.11,-0.12l0.02 0c0.07,0 0.12,0.05 0.12,0.12 0,0.06 -0.05,0.11 -0.12,0.11z"/>
   <path class="fil0" d="M1.09 1.17c-0.02,0 -0.03,-0.01 -0.03,-0.01 -0.02,-0.02 -0.02,-0.04 -0.02,-0.05 -0.01,-0.03 -0.04,-0.19 -0.07,-0.39 0,-0.03 0.09,0.03 0.12,0.03 0.03,0 0.05,0.02 0.05,0.05l0 0.32c0,0.03 -0.02,0.05 -0.05,0.05z"/>
   <path class="fil0" d="M1.2 1.22l-0.07 0c-0.05,0 -0.09,-0.04 -0.09,-0.09 0,-0.01 0.01,-0.02 0.02,-0.02l0.08 0c0.04,0 0.08,0.04 0.08,0.09 0,0.01 -0.01,0.02 -0.02,0.02z"/>
   <path class="fil0" d="M1.14 0.1c-0.02,-0.03 -0.07,-0.06 -0.13,-0.08 -0.05,-0.02 -0.09,-0.02 -0.12,-0.02 0,0.03 0,0.07 0.01,0.12 0.02,0.07 0.06,0.12 0.08,0.14 0.06,-0.05 0.11,-0.11 0.16,-0.16z"/>
   <path class="fil0" d="M1.09 0.11c-0.01,-0.01 -0.04,-0.03 -0.08,-0.04 -0.03,-0.01 -0.05,-0.01 -0.07,-0.01 0,0.01 0,0.04 0.01,0.06 0.01,0.05 0.03,0.07 0.05,0.09 0.03,-0.03 0.06,-0.07 0.09,-0.1z"/>
   <path class="fil0" d="M1.31 0.1c0.03,-0.03 0.07,-0.06 0.14,-0.08 0.04,-0.02 0.09,-0.02 0.12,-0.02 0,0.03 0,0.07 -0.02,0.12 -0.02,0.07 -0.05,0.12 -0.08,0.14 -0.05,-0.05 -0.11,-0.11 -0.16,-0.16z"/>
   <path class="fil0" d="M1.36 0.11c0.02,-0.01 0.04,-0.03 0.08,-0.04 0.03,-0.01 0.06,-0.01 0.07,-0.01 0,0.01 0,0.04 -0.01,0.06 -0.01,0.05 -0.03,0.07 -0.04,0.09 -0.03,-0.03 -0.06,-0.07 -0.1,-0.1z"/>
   <path class="fil0" d="M1.53 0.3c0.02,0.11 -0.14,0.25 -0.31,0.25 -0.16,0 -0.32,-0.14 -0.31,-0.25 0.01,-0.03 0.02,-0.05 0.06,-0.09 0.06,-0.07 0.14,-0.16 0.25,-0.16 0.11,0 0.19,0.08 0.26,0.16 0.03,0.04 0.05,0.06 0.05,0.09z"/>
   <path class="fil0" d="M1.04 0.31c0.01,0 0.01,0 0.01,0 0,-0.03 0.02,-0.04 0.05,-0.04 0.02,0 0.04,0.01 0.04,0.04 0,0 0.01,0 0.01,0 0.01,0 0.01,0 0.01,0 0,-0.04 -0.03,-0.06 -0.06,-0.06 -0.04,0 -0.07,0.02 -0.07,0.06 0,0 0.01,0 0.01,0z"/>
   <path class="fil0" d="M1.29 0.31c0,0 0.01,0 0.01,0 0,-0.03 0.02,-0.04 0.04,-0.04 0.03,0 0.05,0.01 0.05,0.04 0,0 0,0 0.01,0 0,0 0.01,0 0.01,0 0,-0.04 -0.03,-0.06 -0.07,-0.06 -0.03,0 -0.06,0.02 -0.06,0.06 0,0 0,0 0.01,0z"/>
   <g>
    <path class="fil0" d="M1.33 0.37c0,0 0,0 0.01,0l0.18 -0.04c0.01,0 0.01,0 0.01,0.01 0,0 0,0 0,0l-0.19 0.04c-0.01,0 -0.01,0 -0.01,-0.01z"/>
    <path class="fil0" d="M1.34 0.38c0,0 0,0 0,0l0.19 -0.03c0,-0.01 0,-0.01 0,-0.01 0,-0.01 0,-0.01 0,-0.01 0,0 0,0 -0.01,0l-0.19 0.03c0,0.01 0,0.01 0,0.01 0,0.01 0,0.01 0,0.01 0,0 0,0 0.01,0z"/>
   </g>
   <g>
    <path class="fil0" d="M1.53 0.44c0,0 0,0 0,0l-0.19 -0.03c-0.01,-0.01 -0.01,0 -0.01,0 0,0 0,0 0.01,0l0.18 0.04c0.01,0 0.01,0 0.01,-0.01z"/>
    <path class="fil0" d="M1.52 0.45c0.01,0 0.01,0 0.01,0l0 0c0,-0.01 0,-0.01 0,-0.01 0,0 0,0 0,0l-0.19 -0.04c0,0 -0.01,0 -0.01,0 0,0 0,0 0,0.01 0,0 0,0 0,0 0,0.01 0,0.01 0,0.01l0.19 0.03c0,0 0,0 0,0zm0 0l0 0 0 0c0,0 0,0 0,0z"/>
   </g>
   <g>
    <path class="fil0" d="M1.1 0.37c0,0 0,0 -0.01,0l-0.18 -0.04c-0.01,0 -0.01,0 -0.01,0.01 0,0 0,0 0.01,0l0.18 0.04c0.01,0 0.01,0 0.01,-0.01z"/>
    <path class="fil0" d="M1.09 0.38c0.01,0 0.01,0 0.01,0 0,0 0,0 0,-0.01 0,0 0,0 0,-0.01l-0.19 -0.03c0,0 -0.01,0 -0.01,0 0,0 0,0 0,0.01 0,0 0,0 0,0.01l0.19 0.03c0,0 0,0 0,0zm-0.18 -0.04l0 0 0 0 0 0z"/>
   </g>
   <g>
    <path class="fil0" d="M0.9 0.44c0,0 0,0 0.01,0l0.18 -0.03c0.01,-0.01 0.01,0 0.01,0 0,0 0,0 -0.01,0l-0.18 0.04c-0.01,0 -0.01,0 -0.01,-0.01z"/>
    <path class="fil0" d="M0.91 0.45c0,0 0,0 0,0l0.19 -0.03c0,0 0,0 0,-0.01 0,0 0,0 0,0 0,-0.01 0,-0.01 0,-0.01 0,0 -0.01,0 -0.01,0l-0.19 0.04c0,0 0,0 0,0 0,0 0,0 0,0.01l0 0c0,0 0,0 0.01,0zm0 0l0 0c0,0 0,0 0,0l0 0z"/>
   </g>
   <path class="fil0" d="M1.25 0.52l-0.06 0c0,0 0,0 0,0 -0.06,0 -0.09,-0.06 -0.06,-0.1 0,-0.02 0.01,-0.03 0.02,-0.04 0.01,-0.01 0.02,-0.03 0.03,-0.04 0.02,-0.02 0.05,-0.02 0.07,0 0.02,0.01 0.03,0.03 0.04,0.04 0.01,0.02 0.02,0.03 0.02,0.04 0.02,0.03 0.01,0.06 -0.01,0.08 0,0 0,0 0,0 -0.01,0.02 -0.03,0.02 -0.05,0.02z"/>
   <path class="fil0" d="M1.22 0.43c0,0 0,0 0,0l0 -0.04c0,0 0,0 0,0 0,0 0.01,0 0.01,0l0 0.04c0,0 -0.01,0 -0.01,0z"/>
   <path class="fil0" d="M1.19 0.36l0.06 0c0.01,0 0.01,0 0.01,0.01l-0.03 0.02c-0.01,0.01 -0.01,0.01 -0.02,0l-0.03 -0.02c0,-0.01 0,-0.01 0.01,-0.01z"/>
   <path class="fil0" d="M1.25 0.45c0.02,0 0.04,-0.01 0.04,-0.03 0,0 0,0 -0.01,0 0,0 0,0 0,0 0,0.01 -0.01,0.02 -0.03,0.02 -0.01,0 -0.02,-0.01 -0.02,-0.02 0,0 -0.01,0 -0.01,0 0,0 0,0 0,0 0,0.02 0.01,0.03 0.03,0.03z"/>
   <path class="fil0" d="M1.19 0.45c0.02,0 0.04,-0.01 0.04,-0.03 0,0 -0.01,0 -0.01,0 0,0 0,0 0,0 0,0.01 -0.02,0.02 -0.03,0.02 -0.01,0 -0.03,-0.01 -0.03,-0.02 0,0 0,0 0,0 0,0 -0.01,0 -0.01,0 0,0.02 0.02,0.03 0.04,0.03z"/>
   <path class="fil0" d="M0.18 1.13c0.02,0.01 0.04,0.01 0.06,-0.01 0.01,-0.02 0.01,-0.04 -0.01,-0.06 -0.02,-0.01 -0.05,-0.04 -0.05,-0.08 0,-0.01 0,-0.03 0.01,-0.05 0.02,-0.05 0.06,-0.09 0.1,-0.12 0,-0.01 0.01,-0.01 0.02,-0.02 0.06,-0.05 0.11,-0.12 0.15,-0.2 0.01,-0.02 0,-0.05 -0.02,-0.06 -0.02,-0.01 -0.05,0 -0.06,0.02 -0.03,0.07 -0.08,0.13 -0.13,0.18 -0.01,0.01 -0.01,0.01 -0.02,0.02 -0.04,0.03 -0.09,0.08 -0.12,0.16 -0.01,0.03 -0.02,0.06 -0.01,0.08 0,0.07 0.05,0.12 0.08,0.14 0,0 0,0 0,0z"/>
   <path class="fil0" d="M0.18 0.96c0,0.01 0,0.02 0,0.02 0,0.04 0.03,0.07 0.05,0.08 0.02,0.02 0.02,0.04 0.01,0.06 -0.02,0.02 -0.04,0.02 -0.06,0.01 0,0 0,0 0,0 -0.03,-0.02 -0.08,-0.07 -0.08,-0.14 0,-0.01 0,-0.02 0,-0.04 0.02,0 0.05,0 0.08,0.01z"/>
   <path class="fil0" d="M0.43 1.01c0,0 0.01,0 0.01,0 0.03,0 0.07,-0.02 0.11,-0.05 0.01,-0.01 0.02,-0.02 0.03,-0.04 0.03,-0.03 0.05,-0.08 0.06,-0.13 0,0 -0.01,0 -0.01,0 0,-0.01 -0.01,0 -0.01,0 -0.01,0.05 -0.02,0.09 -0.05,0.12 -0.01,0.02 -0.02,0.03 -0.03,0.03 -0.04,0.04 -0.08,0.05 -0.11,0.06 0,0 0,0 0,0.01 0,0 0,0 0,0z"/>
   <path class="fil0" d="M1.13 0.96c0.01,0 0.01,0 0.01,-0.01l0 -0.07c0.04,-0.03 0.06,-0.06 0.06,-0.11 0,0 -0.01,0 -0.01,0 0,0 -0.01,0 -0.01,0 0,0.04 -0.02,0.08 -0.05,0.1l0 0 0 0.08c0,0.01 0,0.01 0,0.01z"/>
  </g>
  <rect class="fil1" width="1.66" height="1.22"/>
 </g>
</svg>

