<?xml version="1.0" encoding="UTF-8"?>
<!DOCTYPE svg PUBLIC "-//W3C//DTD SVG 1.1//EN" "http://www.w3.org/Graphics/SVG/1.1/DTD/svg11.dtd">
<!-- Creator: CorelDRAW 2018 (64-Bit) -->
<svg xmlns="http://www.w3.org/2000/svg" xml:space="preserve" width="68px" height="50px" version="1.1" style="shape-rendering:geometricPrecision; text-rendering:geometricPrecision; image-rendering:optimizeQuality; fill-rule:evenodd; clip-rule:evenodd"
viewBox="0 0 1.57 1.15"
 xmlns:xlink="http://www.w3.org/1999/xlink">
 <defs>
  <style type="text/css">
   <![CDATA[
    .fil1 {fill:none}
    .fil0 {fill:#39414B;fill-rule:nonzero}
   ]]>
  </style>
 </defs>
 <g id="Слой_x0020_1">
  <metadata id="CorelCorpID_0Corel-Layer"/>
  <g id="_1032995808">
   <g>
    <path class="fil0" d="M1.16 0.84l-0.02 0c-0.06,0 -0.11,-0.05 -0.11,-0.1 0,-0.06 0.05,-0.11 0.11,-0.11l0.02 0c0.05,0 0.1,0.05 0.1,0.11 0,0.05 -0.05,0.1 -0.1,0.1z"/>
   </g>
   <g>
    <path class="fil0" d="M1.17 1.11c-0.01,0 -0.03,-0.01 -0.03,-0.01 -0.01,-0.02 -0.02,-0.04 -0.02,-0.05 -0.01,-0.03 -0.03,-0.18 -0.06,-0.37 0,-0.03 0.09,0.03 0.11,0.03 0.03,0 0.05,0.02 0.05,0.05l0 0.3c0,0.03 -0.02,0.05 -0.05,0.05z"/>
   </g>
   <g>
    <path class="fil0" d="M0.42 0.66l0.08 0.13c0.01,0.02 0.02,0.04 0.01,0.06 0,0.01 0,0.02 -0.01,0.03 -0.01,0.03 -0.03,0.04 -0.05,0.05 0,0.01 0,0.01 0,0.02 0,0.01 0.01,0.03 0.01,0.04 0.02,0.06 0.04,0.1 0.06,0.14 0.01,0.01 0.03,0.02 0.07,0.02 0.03,0 0.05,-0.01 0.06,-0.02 -0.03,-0.03 -0.05,-0.06 -0.08,-0.1 -0.01,-0.02 -0.02,-0.03 -0.03,-0.05 0,-0.01 0.01,-0.02 0.02,-0.02 0.03,-0.01 0.09,-0.03 0.13,-0.09 0.07,-0.08 0.05,-0.18 0.05,-0.2 -0.09,-0.02 -0.19,-0.04 -0.28,-0.06 -0.03,0 -0.05,0.03 -0.04,0.05z"/>
   </g>
   <g>
    <path class="fil0" d="M0.64 1.15l-0.07 0c-0.04,0 -0.08,-0.03 -0.08,-0.08 0,-0.01 0.01,-0.02 0.02,-0.02l0.07 0c0.05,0 0.08,0.04 0.08,0.08 0,0.01 -0.01,0.02 -0.02,0.02z"/>
   </g>
   <g>
    <path class="fil0" d="M1.04 0.82l-0.51 0c-0.08,0 -0.15,-0.06 -0.15,-0.15 0,-0.03 0.01,-0.12 0.08,-0.19 0.01,-0.01 0.04,-0.03 0.07,-0.05 0.14,-0.06 0.26,0 0.41,-0.01 0.07,-0.01 0.14,-0.05 0.25,-0.13 0.03,0.03 0.09,-0.01 0.12,0.06 0.02,0.02 0.03,0.02 0.03,0.04l0 0.15c0,0.15 -0.13,0.28 -0.3,0.28z"/>
   </g>
   <path class="fil0" d="M0.89 0.77l0 -0.09c0,-0.11 -0.09,-0.21 -0.2,-0.21 -0.12,0 -0.21,0.1 -0.21,0.21l0 0.09c0,0.02 0.01,0.03 0.01,0.05 0.01,0 0.03,0 0.04,0l0.35 0c0.01,-0.01 0.01,-0.03 0.01,-0.05z"/>
   <path class="fil0" d="M1.3 0.32c-0.16,0.01 -0.28,0.14 -0.28,0.3 0,0.08 0.03,0.15 0.08,0.2 0.13,-0.02 0.24,-0.14 0.24,-0.28l0 -0.15c0,-0.02 -0.01,-0.02 -0.03,-0.04 0,-0.02 -0.01,-0.02 -0.01,-0.03z"/>
   <path class="fil0" d="M0.4 0.75l0.02 0.04c0.01,0.02 0.01,0.04 0.01,0.06 0,0.01 -0.01,0.02 -0.01,0.03 -0.02,0.03 -0.04,0.04 -0.05,0.05 -0.01,0.01 -0.01,0.01 -0.01,0.02 0.01,0.01 0.01,0.03 0.02,0.04 0.01,0.06 0.03,0.1 0.05,0.14 0.01,0.01 0.04,0.02 0.08,0.02 0.02,0 0.04,-0.01 0.05,-0.02 -0.02,-0.03 -0.05,-0.06 -0.08,-0.1 -0.01,-0.02 -0.01,-0.03 -0.02,-0.05 -0.01,-0.01 0,-0.02 0.01,-0.02 0.03,-0.01 0.09,-0.03 0.13,-0.09 0.08,-0.08 0.06,-0.18 0.05,-0.2 -0.05,-0.01 -0.11,-0.02 -0.17,-0.04 -0.07,-0.01 -0.12,0.06 -0.08,0.12z"/>
   <g>
    <path class="fil0" d="M0.55 1.15l-0.06 0c-0.05,0 -0.09,-0.03 -0.09,-0.08 0,-0.01 0.01,-0.02 0.02,-0.02l0.08 0c0.04,0 0.08,0.04 0.08,0.08 0,0.01 -0.01,0.02 -0.03,0.02z"/>
   </g>
   <g>
    <path class="fil0" d="M1.28 1.15l-0.07 0c-0.05,0 -0.08,-0.03 -0.08,-0.08 0,-0.01 0,-0.02 0.02,-0.02l0.07 0c0.04,0 0.08,0.04 0.08,0.08 0,0.01 -0.01,0.02 -0.02,0.02z"/>
   </g>
   <g>
    <path class="fil0" d="M1.08 0.84l-0.01 0c-0.06,0 -0.11,-0.05 -0.11,-0.1 0,-0.06 0.05,-0.11 0.11,-0.11l0.01 0c0.06,0 0.11,0.05 0.11,0.11 0,0.05 -0.05,0.1 -0.11,0.1z"/>
   </g>
   <g>
    <path class="fil0" d="M1.09 1.11c-0.02,0 -0.03,-0.01 -0.03,-0.01 -0.02,-0.02 -0.02,-0.04 -0.02,-0.05 -0.01,-0.03 -0.04,-0.18 -0.07,-0.37 0,-0.03 0.1,0.03 0.12,0.03 0.03,0 0.05,0.02 0.05,0.05l0 0.3c0,0.03 -0.02,0.05 -0.05,0.05z"/>
   </g>
   <g>
    <path class="fil0" d="M1.19 1.15l-0.07 0c-0.04,0 -0.08,-0.03 -0.08,-0.08 0,-0.01 0.01,-0.02 0.02,-0.02l0.07 0c0.05,0 0.09,0.04 0.09,0.08 0,0.01 -0.01,0.02 -0.03,0.02z"/>
   </g>
   <path class="fil0" d="M1.14 0.1c-0.02,-0.03 -0.07,-0.06 -0.13,-0.08 -0.04,-0.01 -0.08,-0.01 -0.11,-0.01 0,0.02 0,0.06 0.01,0.11 0.02,0.06 0.06,0.11 0.08,0.13 0.05,-0.05 0.1,-0.1 0.15,-0.15z"/>
   <path class="fil0" d="M1.09 0.11c-0.01,-0.01 -0.04,-0.03 -0.07,-0.04 -0.03,-0.01 -0.05,-0.01 -0.07,-0.01 0,0.01 0,0.04 0.01,0.06 0.01,0.04 0.03,0.07 0.04,0.08 0.03,-0.03 0.06,-0.06 0.09,-0.09z"/>
   <g>
    <path class="fil0" d="M1.3 0.1c0.02,-0.03 0.06,-0.06 0.12,-0.08 0.05,-0.01 0.09,-0.01 0.12,-0.01 0,0.02 0,0.06 -0.02,0.11 -0.01,0.06 -0.05,0.11 -0.07,0.13 -0.05,-0.05 -0.1,-0.1 -0.15,-0.15z"/>
   </g>
   <g>
    <path class="fil0" d="M1.35 0.11c0.01,-0.01 0.04,-0.03 0.07,-0.04 0.03,-0.01 0.05,-0.01 0.07,-0.01 0,0.01 0,0.04 -0.01,0.06 -0.01,0.04 -0.03,0.07 -0.04,0.08 -0.03,-0.03 -0.06,-0.06 -0.09,-0.09z"/>
   </g>
   <g>
    <path class="fil0" d="M1.51 0.29c0.01,0.1 -0.14,0.24 -0.3,0.24 -0.15,0 -0.3,-0.14 -0.29,-0.24 0.01,-0.03 0.02,-0.05 0.06,-0.09 0.05,-0.06 0.13,-0.15 0.23,-0.15 0.11,0 0.18,0.08 0.24,0.15 0.04,0.04 0.05,0.06 0.06,0.09z"/>
   </g>
   <path class="fil0" d="M1.26 0.09c0,-0.01 0,-0.02 -0.01,-0.04 -0.01,0 -0.02,0 -0.04,0 -0.1,0 -0.18,0.09 -0.23,0.15 -0.04,0.04 -0.05,0.06 -0.06,0.09 0,0.03 0.01,0.07 0.04,0.1 0,0 0,0 0,0 0.16,0 0.3,-0.13 0.3,-0.3z"/>
   <path class="fil0" d="M1.15 0.3c0,0 -0.01,0 -0.01,-0.01 0,-0.02 -0.02,-0.03 -0.04,-0.03 -0.03,0 -0.05,0.01 -0.05,0.03 0,0.01 0,0.01 0,0.01 -0.01,0 -0.01,0 -0.01,-0.01 0,-0.03 0.02,-0.05 0.06,-0.05 0.03,0 0.06,0.02 0.06,0.05 0,0.01 -0.01,0.01 -0.01,0.01z"/>
   <path class="fil0" d="M1.38 0.3c0,0 -0.01,0 -0.01,-0.01 0,-0.02 -0.02,-0.03 -0.04,-0.03 -0.03,0 -0.05,0.01 -0.05,0.03 0,0.01 0,0.01 0,0.01 -0.01,0 -0.01,0 -0.01,-0.01 0,-0.03 0.02,-0.05 0.06,-0.05 0.03,0 0.06,0.02 0.06,0.05 0,0.01 -0.01,0.01 -0.01,0.01z"/>
   <g>
    <path class="fil0" d="M1.24 0.5l-0.05 0c-0.01,0 -0.01,0 -0.01,0 -0.05,-0.01 -0.08,-0.06 -0.06,-0.1 0.01,-0.01 0.02,-0.03 0.02,-0.04 0.01,-0.01 0.03,-0.02 0.04,-0.03 0.02,-0.02 0.04,-0.02 0.06,0 0.01,0.01 0.03,0.02 0.04,0.03 0.01,0.02 0.02,0.03 0.02,0.04 0.01,0.03 0.01,0.06 -0.01,0.08 0,0 0,0 0,0 -0.02,0.01 -0.03,0.02 -0.05,0.02z"/>
   </g>
   <g>
    <path class="fil0" d="M1.21 0.41c0,0 0,0 0,0l0 -0.04c0,0 0,0 0,0 0.01,0 0.01,0 0.01,0l0 0.04c0,0 0,0 -0.01,0z"/>
   </g>
   <g>
    <path class="fil0" d="M1.18 0.34l0.06 0c0.01,0 0.01,0.01 0.01,0.01l-0.03 0.02c0,0.01 -0.01,0.01 -0.02,0l-0.02 -0.02c0,0 0,-0.01 0,-0.01z"/>
   </g>
   <path class="fil0" d="M1.24 0.43c-0.02,0 -0.03,-0.01 -0.03,-0.03 0,0 0,0 0,0 0.01,0 0.01,0 0.01,0 0,0.01 0.01,0.02 0.02,0.02 0.02,0 0.03,-0.01 0.03,-0.02 0,0 0,0 0,0 0,0 0.01,0 0.01,0 0,0.02 -0.02,0.03 -0.04,0.03z"/>
   <path class="fil0" d="M1.18 0.43c-0.01,0 -0.03,-0.01 -0.03,-0.03 0,0 0,0 0,0 0.01,0 0.01,0 0.01,0 0,0.01 0.01,0.02 0.02,0.02 0.02,0 0.03,-0.01 0.03,-0.02 0,0 0,0 0,0 0.01,0 0.01,0 0.01,0 0,0.02 -0.02,0.03 -0.04,0.03z"/>
   <g>
    <path class="fil0" d="M0.05 0.18c-0.02,0.01 -0.02,0.03 -0.02,0.05 0.01,0.02 0.03,0.03 0.05,0.02 0.02,0 0.06,-0.01 0.09,0 0.01,0.01 0.02,0.02 0.04,0.04 0.03,0.04 0.04,0.09 0.05,0.14 0,0 0,0.01 0,0.02 0.02,0.07 0.05,0.15 0.09,0.22 0.01,0.02 0.04,0.02 0.06,0.01 0.01,-0.01 0.02,-0.03 0.01,-0.05 -0.04,-0.07 -0.07,-0.13 -0.08,-0.2 0,0 0,-0.01 0,-0.02 -0.01,-0.05 -0.02,-0.11 -0.07,-0.17 -0.02,-0.03 -0.04,-0.05 -0.07,-0.06 -0.05,-0.02 -0.11,-0.01 -0.14,0 -0.01,0 -0.01,0 -0.01,0z"/>
   </g>
   <g>
    <path class="fil0" d="M0.19 0.27c-0.01,-0.01 -0.01,-0.01 -0.02,-0.02 -0.03,-0.01 -0.07,0 -0.09,0.01 -0.02,0 -0.04,-0.01 -0.05,-0.03 -0.01,-0.02 0,-0.04 0.02,-0.05 0,0 0,0 0,0 0.03,-0.01 0.1,-0.03 0.16,0 0.01,0.01 0.02,0.01 0.03,0.02 -0.01,0.03 -0.03,0.05 -0.05,0.07z"/>
   </g>
   <path class="fil0" d="M0.47 0.96c0,0 0,0 -0.01,-0.01 0,0 0.01,0 0.01,-0.01 0.03,0 0.07,-0.02 0.1,-0.05 0.01,0 0.02,-0.01 0.03,-0.02 0.03,-0.04 0.04,-0.08 0.05,-0.12 0,0 0,-0.01 0.01,-0.01 0,0 0,0.01 0,0.01 0,0.05 -0.02,0.09 -0.05,0.13 -0.01,0.01 -0.02,0.02 -0.03,0.03 -0.04,0.03 -0.08,0.04 -0.11,0.05 0,0 0,0 0,0z"/>
   <path class="fil0" d="M1.13 0.91c0,0 -0.01,-0.01 -0.01,-0.01l0 -0.08 0.01 0c0.03,-0.02 0.05,-0.05 0.05,-0.09 0,0 0,0 0,0 0.01,0 0.01,0 0.01,0 0,0.04 -0.02,0.08 -0.05,0.1l0 0.07c0,0 -0.01,0.01 -0.01,0.01z"/>
   <g>
    <path class="fil0" d="M1.12 0.35c0,0 0,0 0,0l-0.15 -0.03c-0.01,0 -0.01,0 -0.01,0 0,0 0,0.01 0,0.01l0.16 0.03c0,0 0,-0.01 0,-0.01z"/>
    <path class="fil0" d="M1.12 0.36c0,0 0,0 0,0l-0.16 -0.03c0,0 0,0 0,0 0,0 0,-0.01 0,-0.01 0,0 0,0 0,0 0,0 0,0 0.01,0l0.15 0.03c0,0 0.01,0 0,0l0 0c0,0.01 0,0.01 0,0.01zm-0.16 -0.04l0 0 0 0 0 0z"/>
   </g>
   <g>
    <path class="fil0" d="M0.96 0.41c0,0 0,0 0,0l0.16 -0.03c0,0 0,0 0,0 0,0 0,0 0,0l-0.15 0.03c-0.01,0 -0.01,0 -0.01,0z"/>
    <path class="fil0" d="M0.97 0.42c-0.01,0 -0.01,0 -0.01,0 0,0 0,-0.01 0,-0.01 0,0 0,0 0,0 0,0 0,-0.01 0,-0.01l0.16 -0.02c0,-0.01 0,0 0,0 0,0 0,0 0,0 0.01,0 0,0.01 0,0.01l-0.15 0.03c0,0 0,0 0,0zm0 -0.01l0 0 0 0 0 0z"/>
   </g>
   <g>
    <path class="fil0" d="M1.31 0.35c0,0 0,0 0,0l0.16 -0.03c0,0 0,0 0,0 0,0 0,0.01 0,0.01l-0.15 0.03c-0.01,0 -0.01,-0.01 -0.01,-0.01z"/>
    <path class="fil0" d="M1.32 0.36c-0.01,0 -0.01,0 -0.01,-0.01l0 0c0,0 0,0 0,0l0.16 -0.03c0,0 0,0 0,0 0,0 0,0 0.01,0 0,0.01 -0.01,0.01 -0.01,0.01l-0.15 0.03c0,0 0,0 0,0z"/>
   </g>
   <g>
    <path class="fil0" d="M1.47 0.41c0,0 0,0 0,0l-0.15 -0.03c-0.01,0 -0.01,0 -0.01,0 0,0 0,0 0,0l0.16 0.03c0,0 0,0 0,0z"/>
    <path class="fil0" d="M1.47 0.42c0,0 0,0 0,0l-0.16 -0.03c0,0 0,-0.01 0,-0.01 0,0 0,-0.01 0.01,0l0.15 0.02c0,0 0,0.01 0,0.01 0.01,0 0.01,0 0.01,0 -0.01,0 -0.01,0.01 -0.01,0.01 0,0 0,0 0,0zm0 -0.01l0 0 0 0 0 0z"/>
   </g>
  </g>
  <rect class="fil1" width="1.57" height="1.15"/>
 </g>
</svg>

