<?xml version="1.0" encoding="UTF-8"?>
<!DOCTYPE svg PUBLIC "-//W3C//DTD SVG 1.1//EN" "http://www.w3.org/Graphics/SVG/1.1/DTD/svg11.dtd">
<!-- Creator: CorelDRAW 2018 (64-Bit) -->
<svg xmlns="http://www.w3.org/2000/svg" xml:space="preserve" width="68px" height="50px" version="1.1" style="shape-rendering:geometricPrecision; text-rendering:geometricPrecision; image-rendering:optimizeQuality; fill-rule:evenodd; clip-rule:evenodd"
viewBox="0 0 1.49 1.1"
 xmlns:xlink="http://www.w3.org/1999/xlink">
 <defs>
  <style type="text/css">
   <![CDATA[
    .str2 {stroke:#39414B;stroke-width:0.04;stroke-linecap:round;stroke-miterlimit:10}
    .str0 {stroke:#39414B;stroke-width:0.02;stroke-linecap:round;stroke-miterlimit:10}
    .str1 {stroke:#39414B;stroke-width:0.02;stroke-linecap:round;stroke-linejoin:round;stroke-miterlimit:10}
    .fil2 {fill:none}
    .fil1 {fill:none;fill-rule:nonzero}
    .fil0 {fill:#39414B;fill-rule:nonzero}
   ]]>
  </style>
 </defs>
 <g id="Слой_x0020_1">
  <metadata id="CorelCorpID_0Corel-Layer"/>
  <g id="_897774352">
   <g>
    <g>
     <path class="fil0" d="M1.2 0.83l-0.01 0.01c-0.03,0.04 -0.1,0.05 -0.14,0.01 -0.03,-0.04 -0.04,-0.1 0,-0.14l0.01 -0.01c0.04,-0.04 0.1,-0.04 0.14,0 0.03,0.03 0.04,0.09 0,0.13z"/>
     <path class="fil0" d="M1.39 0.99c-0.01,0.01 -0.03,0.01 -0.03,0.01 -0.02,0 -0.03,-0.01 -0.04,-0.01 -0.03,-0.02 -0.14,-0.09 -0.29,-0.19 -0.02,-0.02 0.08,-0.04 0.09,-0.06 0.02,-0.02 0.05,-0.02 0.06,0l0.2 0.18c0.02,0.02 0.02,0.05 0.01,0.07z"/>
     <path class="fil0" d="M0.54 0.63l-0.02 0.13c0,0.02 -0.01,0.04 -0.03,0.05 0,0 -0.01,0.01 -0.02,0.01 -0.03,0.01 -0.05,0.01 -0.06,0.01 -0.01,0 -0.02,0 -0.02,0.01 0,0.01 -0.01,0.02 -0.01,0.04 -0.02,0.04 -0.04,0.09 -0.04,0.13 0,0 0.01,0.03 0.04,0.05 0.02,0.02 0.04,0.02 0.05,0.02 -0.01,-0.03 -0.01,-0.07 0,-0.12 0,-0.01 0.01,-0.03 0.01,-0.04 0,-0.01 0.01,-0.02 0.02,-0.01 0.03,0.01 0.08,0.03 0.14,0.02 0.1,-0.02 0.15,-0.1 0.15,-0.12 -0.05,-0.06 -0.1,-0.13 -0.16,-0.2 -0.01,-0.02 -0.05,-0.01 -0.05,0.02z"/>
     <path class="fil0" d="M0.41 1.09l-0.05 -0.04c-0.03,-0.02 -0.04,-0.07 -0.01,-0.1 0.01,-0.01 0.02,-0.01 0.03,0l0.05 0.04c0.03,0.02 0.03,0.07 0.01,0.1 -0.01,0.01 -0.02,0.01 -0.03,0z"/>
     <path class="fil0" d="M0.99 0.84l-0.46 0c-0.08,0 -0.14,-0.06 -0.14,-0.14 0,-0.03 0.01,-0.11 0.07,-0.17 0.02,-0.01 0.04,-0.03 0.07,-0.04 0.13,-0.06 0.23,0 0.37,-0.02 0.06,-0.01 0.13,-0.04 0.22,-0.11 0.03,0.02 0.09,-0.01 0.12,0.05 0.01,0.02 0.01,0.02 0.02,0.04l0 0.13c0,0.14 -0.12,0.26 -0.27,0.26z"/>
     <path class="fil0" d="M0.39 0.71l-0.01 0.04c0,0.01 -0.02,0.03 -0.03,0.04 -0.01,0.01 -0.02,0.01 -0.03,0.01 -0.03,0.01 -0.05,0.01 -0.06,0 -0.01,0 -0.01,0.01 -0.02,0.01 0,0.01 -0.01,0.03 -0.02,0.04 -0.02,0.04 -0.04,0.08 -0.05,0.12 0,0.01 0.01,0.04 0.03,0.06 0.02,0.02 0.04,0.02 0.05,0.02 0,-0.03 0.01,-0.07 0.02,-0.11 0,-0.02 0.01,-0.03 0.01,-0.05 0.01,-0.01 0.02,-0.01 0.03,0 0.02,0.01 0.07,0.03 0.13,0.03 0.1,-0.01 0.16,-0.09 0.17,-0.1 -0.03,-0.04 -0.06,-0.09 -0.09,-0.13 -0.04,-0.06 -0.12,-0.04 -0.13,0.02z"/>
     <path class="fil0" d="M0.23 1.06l-0.04 -0.04c-0.03,-0.03 -0.03,-0.08 0,-0.1 0.01,-0.01 0.02,-0.01 0.03,0l0.04 0.04c0.03,0.03 0.03,0.08 0,0.1 -0.01,0.01 -0.02,0.01 -0.03,0z"/>
     <path class="fil0" d="M1.48 0.94l-0.04 0.05c-0.03,0.03 -0.08,0.03 -0.11,0 0,0 0,-0.02 0,-0.02l0.05 -0.05c0.02,-0.03 0.07,-0.03 0.1,0 0.01,0 0.01,0.02 0,0.02z"/>
     <path class="fil0" d="M1.12 0.86l-0.01 0.01c-0.05,0.04 -0.11,0.03 -0.14,-0.01 -0.03,-0.04 -0.03,-0.1 0.01,-0.13l0.02 -0.01c0.04,-0.04 0.1,-0.03 0.13,0.01 0.03,0.04 0.03,0.1 -0.01,0.13z"/>
     <path class="fil0" d="M1.28 1.05c-0.02,0.01 -0.03,0 -0.04,0 -0.01,0 -0.03,-0.01 -0.03,-0.01 -0.03,-0.02 -0.13,-0.11 -0.26,-0.23 -0.02,-0.02 0.08,-0.03 0.1,-0.04 0.01,-0.02 0.04,-0.01 0.06,0.01l0.17 0.2c0.01,0.02 0.01,0.05 0,0.07z"/>
     <path class="fil0" d="M1.37 1.02l-0.05 0.04c-0.03,0.02 -0.07,0.02 -0.1,-0.01 -0.01,-0.01 0,-0.02 0,-0.03l0.05 -0.04c0.03,-0.03 0.08,-0.02 0.1,0.01 0.01,0.01 0.01,0.02 0,0.03z"/>
     <path class="fil0" d="M1.08 0.18c-0.02,-0.02 -0.06,-0.05 -0.12,-0.06 -0.04,-0.02 -0.07,-0.02 -0.1,-0.02 0,0.03 0,0.06 0.01,0.1 0.02,0.06 0.05,0.1 0.07,0.12 0.05,-0.04 0.09,-0.09 0.14,-0.14z"/>
     <path class="fil0" d="M1.03 0.19c-0.01,-0.01 -0.03,-0.02 -0.06,-0.03 -0.03,-0.01 -0.05,-0.01 -0.06,-0.01 0,0.01 0,0.03 0,0.06 0.01,0.03 0.03,0.05 0.04,0.07 0.03,-0.03 0.06,-0.06 0.08,-0.09z"/>
     <path class="fil0" d="M1.22 0.18c0.02,-0.02 0.06,-0.05 0.11,-0.06 0.05,-0.02 0.08,-0.02 0.11,-0.02 0,0.03 0,0.06 -0.02,0.1 -0.01,0.06 -0.04,0.1 -0.06,0.12 -0.05,-0.04 -0.09,-0.09 -0.14,-0.14z"/>
     <path class="fil0" d="M1.26 0.19c0.02,-0.01 0.04,-0.02 0.07,-0.03 0.03,-0.01 0.05,-0.01 0.06,-0.01 0,0.01 0,0.03 -0.01,0.06 -0.01,0.03 -0.02,0.05 -0.03,0.07 -0.03,-0.03 -0.06,-0.06 -0.09,-0.09z"/>
     <path class="fil0" d="M1.41 0.35c0.01,0.1 -0.12,0.22 -0.27,0.22 -0.13,0 -0.27,-0.12 -0.26,-0.22 0,-0.02 0.02,-0.04 0.05,-0.07 0.05,-0.06 0.12,-0.14 0.21,-0.14 0.1,0 0.16,0.07 0.22,0.14 0.03,0.03 0.05,0.05 0.05,0.07z"/>
     <g>
      <path class="fil0" d="M1.24 0.42c0,0 0,0 0,0l0.16 -0.03c0.01,0 0.01,0 0.01,-0.01 0,0 0,0 0,0 -0.01,0 -0.01,0 -0.01,0l-0.16 0.03c0,0 -0.01,0 0,0.01 0,0 0,0 0,0 0,0 0,0 0,0z"/>
      <path class="fil0" d="M1.4 0.47l-0.16 -0.03c0,0 0,0 0,0 0,0 0,0 0,0.01 -0.01,0 0,0 0,0l0.16 0.03c0,0 0,0 0,0 0,0 0,0 0.01,0 0,0 0,0 0,0 0,-0.01 0,-0.01 -0.01,-0.01z"/>
      <path class="fil0" d="M1.04 0.41l-0.16 -0.03c0,0 -0.01,0 -0.01,0 0,0 0,0 0,0 0,0.01 0,0.01 0,0.01 0,0 0,0 0.01,0l0.16 0.03c0,0 0,0 0,0 0,0 0,0 0,0 0,0 0,0 0,0 0,-0.01 0,-0.01 0,-0.01z"/>
      <path class="fil0" d="M1.04 0.44l-0.16 0.03c-0.01,0 -0.01,0 -0.01,0 0,0 0,0.01 0,0.01 0,0 0,0 0,0 0,0 0.01,0 0.01,0 0,0 0,0 0,0l0.16 -0.03c0,0 0,0 0,0 0,-0.01 0,-0.01 0,-0.01 0,0 0,0 0,0z"/>
      <path class="fil0" d="M1.2 0.42c-0.01,-0.01 -0.02,-0.02 -0.03,-0.03 -0.02,-0.02 -0.04,-0.01 -0.06,0 -0.01,0.01 -0.02,0.02 -0.03,0.03 -0.01,0.01 -0.01,0.02 -0.02,0.03 -0.02,0.04 0.01,0.09 0.05,0.09 0.01,0 0.01,0.01 0.01,0.01l0.04 0c0.02,0 0.04,-0.01 0.05,-0.02 0,0 0,0 0,0 0.02,-0.02 0.02,-0.05 0.01,-0.07 0,-0.01 -0.01,-0.02 -0.02,-0.04z"/>
     </g>
     <path class="fil0" d="M1.14 0.47l0 0c0,0 0,0 0,-0.01l0 -0.03c0,0 0,0 0,0l0 0c0.01,0 0.01,0 0.01,0l0 0.03c0,0.01 0,0.01 -0.01,0.01z"/>
     <path class="fil0" d="M1.12 0.4l0.05 0c0.01,0 0.01,0.01 0.01,0.01l-0.03 0.02c0,0.01 -0.01,0.01 -0.02,0l-0.02 -0.02c0,0 0,-0.01 0.01,-0.01z"/>
     <path class="fil1 str0" d="M1.2 0.46c0,0.01 -0.02,0.02 -0.03,0.02 -0.01,0 -0.03,-0.01 -0.03,-0.02"/>
     <path class="fil1 str0" d="M1.14 0.46c0,0.01 -0.01,0.02 -0.02,0.02 -0.02,0 -0.03,-0.01 -0.03,-0.02"/>
     <path class="fil0" d="M0.01 0.31c-0.01,0.02 -0.01,0.04 0,0.05 0.01,0.02 0.03,0.02 0.05,0.01 0.01,-0.01 0.04,-0.03 0.07,-0.02 0.02,0 0.03,0 0.04,0.01 0.05,0.03 0.07,0.07 0.09,0.11 0,0.01 0,0.01 0.01,0.02 0.03,0.06 0.07,0.12 0.13,0.16 0.01,0.02 0.04,0.02 0.05,0 0.01,-0.01 0.01,-0.04 0,-0.05 -0.05,-0.04 -0.09,-0.09 -0.12,-0.14 -0.01,-0.01 -0.01,-0.02 -0.01,-0.02 -0.02,-0.04 -0.05,-0.1 -0.11,-0.14 -0.02,-0.01 -0.04,-0.02 -0.07,-0.02 -0.05,-0.01 -0.1,0.02 -0.12,0.03 -0.01,0 -0.01,0 -0.01,0z"/>
     <path class="fil0" d="M0.15 0.35c0,0 -0.01,0 -0.02,0 -0.03,-0.01 -0.06,0.01 -0.07,0.02 -0.02,0.01 -0.04,0.01 -0.05,-0.01 -0.01,-0.01 -0.01,-0.03 0,-0.05 0,0 0,0 0,0 0.03,-0.01 0.08,-0.04 0.13,-0.04 0.02,0.01 0.03,0.01 0.04,0.01 0,0.03 -0.01,0.05 -0.03,0.07z"/>
     <path class="fil1 str1" d="M0.31 0.88c0.02,0.02 0.06,0.03 0.1,0.04 0.01,0 0.02,0 0.04,0 0.04,-0.01 0.08,-0.03 0.11,-0.05"/>
     <line class="fil1 str1" x1="1.18" y1="0.88" x2="1.14" y2= "0.83" />
     <path class="fil1 str1" d="M1.14 0.83c0.01,-0.04 0.01,-0.07 -0.01,-0.1"/>
     <path class="fil1 str2" d="M0.99 0.36c0,-0.02 0.02,-0.04 0.05,-0.04 0.03,0 0.05,0.02 0.05,0.04"/>
     <path class="fil1 str2" d="M1.2 0.36c0,-0.02 0.02,-0.04 0.05,-0.04 0.02,0 0.04,0.02 0.04,0.04"/>
    </g>
    <path class="fil0" d="M1.25 0.34c0,-0.01 0.01,-0.02 0.02,-0.02 0.01,0 0.02,0.01 0.02,0.02 0,0.01 -0.01,0.02 -0.02,0.02 -0.01,0 -0.02,-0.01 -0.02,-0.02z"/>
    <path class="fil0" d="M1.05 0.34c0,-0.01 0,-0.02 0.02,-0.02 0.01,0 0.02,0.01 0.02,0.02 0,0.01 -0.01,0.02 -0.02,0.02 -0.02,0 -0.02,-0.01 -0.02,-0.02z"/>
   </g>
  </g>
  <rect class="fil2" width="1.49" height="1.09"/>
 </g>
</svg>

